<svg width="100" height="100" viewBox="0 0 100 100" fill="none" xmlns="http://www.w3.org/2000/svg">
<path d="M70.3768 90.7498C67.2819 92.2748 63.9626 93.456 60.464 94.2634C56.9654 95.0707 53.4518 95.4445 50.013 95.4146C33.6711 95.31 18.6151 86.3391 10.7058 72.1652C10.317 71.4775 9.94326 70.7897 9.59938 70.072C8.07434 66.9771 6.89318 63.6579 6.08581 60.1593C5.65222 58.2903 5.35319 56.4363 5.17377 54.5824C5.09901 53.9096 5.59242 53.3265 6.26523 53.2667C6.90814 53.2218 7.47629 53.7003 7.53609 54.3432C7.86503 57.6773 8.59764 60.9965 9.719 64.226C10.5264 66.5435 11.5431 68.8161 12.7691 71.014C13.5017 72.3147 14.2941 73.5856 15.1763 74.8266C17.8825 78.6541 21.112 81.8986 24.6704 84.5599C35.6148 92.7084 49.9233 95.1754 62.9609 91.1535C67.2071 89.8527 71.3187 87.8791 75.1463 85.1729C78.4954 82.8106 81.396 80.0446 83.848 77.0095C88.0045 71.8512 90.8452 65.8856 92.2806 59.606C92.5647 58.3651 91.7274 57.154 90.4715 56.9297C89.2903 56.7204 88.1839 57.4979 87.9148 58.6492C86.7635 63.6429 84.6255 68.4274 81.5455 72.6586C79.1234 75.9928 76.1331 78.998 72.5746 81.5098C69.0162 84.0217 65.1887 85.8308 61.2265 86.997C49.7738 90.376 37.3193 88.223 27.6607 81.2108C24.3265 78.7887 21.3213 75.7984 18.8094 72.24C18.017 71.1186 17.3143 69.9823 16.6564 68.8161C15.2361 66.2744 14.1147 63.613 13.3223 60.9068C12.3504 57.6175 11.8421 54.2385 11.7823 50.8595C11.7823 50.1867 12.3056 49.6335 12.9784 49.6484C13.6213 49.6484 14.1297 50.1717 14.1446 50.8146C14.2792 56.7055 15.8491 62.5066 18.7197 67.6648C19.6168 69.2646 20.6335 70.8046 21.7698 72.2699C24.2218 75.4246 27.242 78.2205 30.8005 80.4931C34.3589 82.7658 38.1565 84.3357 42.0439 85.2626C52.6893 87.7745 63.9776 85.2925 72.6045 78.5794C75.7593 76.1273 78.5552 73.1072 80.8278 69.5487C83.1004 65.9903 84.6703 62.1926 85.5973 58.3053C86.6589 53.775 86.8233 49.1251 86.1505 44.6098C85.9561 43.3389 84.7451 42.4867 83.4892 42.7558H83.4144C82.2781 43.025 81.5604 44.1164 81.7249 45.2677C82.3528 49.3793 82.1734 53.6255 81.1268 57.7371C80.3045 60.9816 78.9738 64.1662 77.0601 67.1415C75.1463 70.1169 72.8288 72.6586 70.2123 74.7518C62.4825 80.9716 52.2108 83.2143 42.5971 80.7922C39.3527 79.9698 36.168 78.6392 33.1927 76.7254C30.2173 74.8116 27.6756 72.4941 25.5824 69.8777C24.4611 68.4872 23.4743 67.007 22.622 65.467C20.5737 61.7889 19.2879 57.7371 18.8094 53.5806C18.7347 52.9228 19.2281 52.3247 19.8859 52.2649C20.5139 52.2201 21.0671 52.6686 21.1269 53.2966C21.4409 56.0476 22.1286 58.7688 23.2201 61.3703C23.6387 62.3721 24.1172 63.3439 24.6554 64.3157C25.4927 65.8109 26.4646 67.2612 27.6009 68.6367C29.4548 70.8943 31.563 72.7932 33.8655 74.3481C42.0589 79.8951 52.5846 80.9267 61.705 77.0992C64.2617 76.0227 66.7137 74.5724 68.9714 72.7184C71.229 70.8644 73.1278 68.7563 74.6828 66.4538C76.9853 63.0449 78.5103 59.2323 79.243 55.2851C79.4822 53.9993 78.5702 52.7882 77.2694 52.6536C76.1331 52.534 75.0715 53.3115 74.8622 54.4478C73.8455 60.0695 70.9001 65.3623 66.1455 69.2796C55.5002 78.0112 39.8012 76.4712 31.0696 65.8258C30.1127 64.6596 29.2904 63.4336 28.5727 62.1627C26.031 57.6325 25.0442 52.534 25.5226 47.5702C25.5675 47.1665 25.6123 46.7478 25.6721 46.3442C25.702 46.1647 25.7319 45.9853 25.7618 45.791C25.8067 45.5667 25.8366 45.3574 25.8814 45.1331C25.9263 44.9088 25.9861 44.6846 26.031 44.4603C26.0758 44.2958 26.1057 44.1164 26.1506 43.9519C26.2104 43.7127 26.2702 43.4735 26.3449 43.2343C26.3898 43.0848 26.4347 42.9203 26.4795 42.7708C26.5543 42.5316 26.629 42.3073 26.7038 42.0681C26.7486 41.9186 26.8084 41.7541 26.8682 41.6046C26.943 41.3803 27.0327 41.171 27.1224 40.9467C27.1822 40.7823 27.257 40.6028 27.3168 40.4384C27.3915 40.244 27.4813 40.0496 27.571 39.8553C27.6607 39.6609 27.7354 39.4815 27.8251 39.2871C27.8999 39.1226 27.9896 38.9582 28.0643 38.7937C28.169 38.5844 28.2737 38.3751 28.3933 38.1658C28.468 38.0312 28.5428 37.9116 28.6176 37.777C28.7521 37.5378 28.8867 37.3135 29.0212 37.0743C29.081 36.9696 29.1409 36.8799 29.2007 36.7753C29.3651 36.5211 29.5146 36.2669 29.6941 36.0277C29.7389 35.953 29.7987 35.8782 29.8436 35.8034C30.023 35.5343 30.2173 35.2801 30.4117 35.011C30.4566 34.9512 30.5014 34.8914 30.5463 34.8465C30.7556 34.5774 30.9649 34.3083 31.1742 34.0541C31.2191 34.0093 31.264 33.9644 31.2939 33.9046C31.5181 33.6504 31.7424 33.3813 31.9667 33.1421C32.0115 33.0972 32.0564 33.0524 32.1012 32.9926C32.3255 32.7533 32.5647 32.4992 32.8039 32.26C32.8638 32.2001 32.9086 32.1553 32.9684 32.1104C33.2076 31.8862 33.4469 31.647 33.701 31.4376C33.7608 31.3928 33.8206 31.333 33.8655 31.2881C34.1197 31.0638 34.3738 30.8396 34.643 30.6303C39.562 26.6532 45.9911 24.5151 52.779 25.1879C55.9935 25.5019 59.0436 24.5749 61.4508 22.7808C62.1386 22.2724 62.7815 21.6744 63.3496 21.0315C64.3364 19.9101 65.1288 18.6093 65.6671 17.189C65.9512 16.4563 66.1605 15.6789 66.2951 14.8864C66.3399 14.6024 66.3848 14.3033 66.4147 14.0193C66.5492 12.6288 66.4446 11.2682 66.1455 9.98238C65.9063 8.95074 65.5475 7.97889 65.069 7.06686C63.1852 3.44862 59.5819 0.832131 55.231 0.398541C47.7254 -0.334078 40.4591 0.637762 33.7758 2.98513C33.7608 2.98513 33.7459 2.98513 33.716 3.00008C33.1329 3.2094 32.5647 3.41872 31.9816 3.64299C31.8919 3.68784 31.7872 3.71775 31.6975 3.7626C31.4583 3.85231 31.2191 3.95697 30.9799 4.06163C30.7108 4.16629 30.4566 4.2859 30.1875 4.40551C30.1276 4.43542 30.0678 4.46532 29.9931 4.49522C23.9976 7.17152 18.7048 10.9542 14.324 15.5293C14.3091 15.5443 14.2941 15.5593 14.2792 15.5892C13.8007 16.0826 13.3372 16.5909 12.8887 17.0992C12.8438 17.1441 12.799 17.2039 12.7691 17.2488C12.5747 17.473 12.3803 17.6973 12.186 17.9216C12.0514 18.086 11.9168 18.2505 11.7823 18.415C11.6926 18.5346 11.5879 18.6392 11.4982 18.7588C11.2739 19.028 11.0646 19.312 10.8404 19.5812C10.8404 19.5812 10.8403 19.5961 10.8254 19.6111C7.46133 23.9769 4.78503 28.9258 3.00582 34.3233C3.00582 34.3532 2.99087 34.3681 2.97592 34.398C2.87126 34.7269 2.7666 35.0409 2.66194 35.3698C2.60213 35.5792 2.54233 35.7735 2.48252 35.9828C2.43767 36.1324 2.39281 36.2819 2.34796 36.4314C1.54058 39.2572 0.98738 42.1578 0.703303 45.1181C0.194956 50.3511 0.493988 55.7486 1.73495 61.146C2.8264 65.8856 4.54581 70.2963 6.80347 74.3332C17.3292 93.1869 39.3676 103.668 61.4658 98.5993C74.0698 95.7137 84.461 88.2828 91.2938 78.4299C92.0115 77.3833 91.6975 75.9479 90.6359 75.2901C89.6192 74.6471 88.2886 74.9312 87.6157 75.918C83.2948 82.1378 77.4189 87.296 70.3917 90.7498H70.3768Z" fill="white"/>
</svg>
