<svg width="180" height="180" viewBox="0 0 180 180" fill="none" xmlns="http://www.w3.org/2000/svg">
<path d="M115.319 133.102C112.007 134.734 108.455 135.998 104.712 136.862C100.968 137.726 97.2088 138.126 93.5293 138.094C76.0435 137.982 59.9335 128.383 51.4706 113.217C51.0546 112.481 50.6547 111.745 50.2867 110.977C48.6549 107.665 47.3911 104.114 46.5272 100.37C46.0632 98.3706 45.7433 96.3869 45.5513 94.4031C45.4713 93.6832 45.9993 93.0593 46.7192 92.9953C47.4071 92.9473 48.015 93.4592 48.079 94.1472C48.431 97.7147 49.2149 101.266 50.4147 104.722C51.2786 107.202 52.3665 109.633 53.6783 111.985C54.4622 113.377 55.3101 114.737 56.254 116.064C59.1496 120.16 62.6052 123.631 66.4127 126.479C78.1232 135.198 93.4333 137.838 107.384 133.534C111.927 132.142 116.326 130.031 120.422 127.135C124.005 124.607 127.109 121.648 129.733 118.4C134.18 112.881 137.22 106.498 138.756 99.7784C139.06 98.4506 138.164 97.1548 136.82 96.9148C135.556 96.6908 134.372 97.5227 134.084 98.7546C132.852 104.098 130.565 109.217 127.269 113.745C124.677 117.312 121.478 120.528 117.67 123.216C113.863 125.903 109.767 127.839 105.528 129.087C93.2733 132.702 79.947 130.399 69.6123 122.896C66.0447 120.304 62.8291 117.104 60.1415 113.297C59.2936 112.097 58.5417 110.881 57.8378 109.633C56.318 106.914 55.1181 104.066 54.2702 101.17C53.2303 97.6507 52.6864 94.0352 52.6224 90.4196C52.6224 89.6997 53.1824 89.1078 53.9023 89.1238C54.5902 89.1238 55.1341 89.6837 55.1501 90.3716C55.2941 96.6748 56.9739 102.882 60.0455 108.401C61.0054 110.113 62.0932 111.761 63.3091 113.329C65.9327 116.704 69.1643 119.696 72.9719 122.128C76.7794 124.559 80.8429 126.239 85.0024 127.231C96.3929 129.919 108.471 127.263 117.702 120.08C121.078 117.456 124.069 114.225 126.501 110.417C128.933 106.61 130.613 102.546 131.604 98.3866C132.74 93.5392 132.916 88.5639 132.196 83.7325C131.988 82.3726 130.693 81.4608 129.349 81.7487H129.269C128.053 82.0367 127.285 83.2045 127.461 84.4364C128.133 88.8358 127.941 93.3793 126.821 97.7787C125.941 101.25 124.517 104.658 122.47 107.841C120.422 111.025 117.942 113.745 115.143 115.984C106.872 122.64 95.881 125.039 85.5943 122.448C82.1227 121.568 78.7151 120.144 75.5315 118.096C72.3479 116.048 69.6283 113.569 67.3886 110.769C66.1887 109.281 65.1328 107.697 64.221 106.05C62.0292 102.114 60.6534 97.7787 60.1415 93.3313C60.0615 92.6273 60.5894 91.9874 61.2933 91.9234C61.9652 91.8754 62.5572 92.3554 62.6212 93.0273C62.9571 95.9709 63.693 98.8826 64.8609 101.666C65.3088 102.738 65.8208 103.778 66.3967 104.818C67.2926 106.418 68.3324 107.969 69.5483 109.441C71.532 111.857 73.7878 113.889 76.2515 115.552C85.0184 121.488 96.2809 122.592 106.04 118.496C108.775 117.344 111.399 115.792 113.815 113.809C116.23 111.825 118.262 109.569 119.926 107.106C122.39 103.458 124.021 99.3785 124.805 95.155C125.061 93.7792 124.085 92.4834 122.694 92.3394C121.478 92.2114 120.342 93.0433 120.118 94.2591C119.03 100.274 115.878 105.938 110.791 110.129C99.4005 119.472 82.6027 117.824 73.2598 106.434C72.236 105.186 71.3561 103.874 70.5882 102.514C67.8685 97.6667 66.8126 92.2114 67.3246 86.9001C67.3726 86.4681 67.4206 86.0202 67.4846 85.5882C67.5165 85.3963 67.5485 85.2043 67.5805 84.9963C67.6285 84.7563 67.6605 84.5324 67.7085 84.2924C67.7565 84.0524 67.8205 83.8125 67.8685 83.5725C67.9165 83.3965 67.9485 83.2045 67.9965 83.0286C68.0605 82.7726 68.1245 82.5166 68.2045 82.2607C68.2525 82.1007 68.3005 81.9247 68.3484 81.7647C68.4284 81.5087 68.5084 81.2688 68.5884 81.0128C68.6364 80.8528 68.7004 80.6769 68.7644 80.5169C68.8444 80.2769 68.9404 80.0529 69.0364 79.813C69.1004 79.637 69.1803 79.445 69.2443 79.269C69.3243 79.0611 69.4203 78.8531 69.5163 78.6451C69.6123 78.4371 69.6923 78.2452 69.7883 78.0372C69.8683 77.8612 69.9642 77.6852 70.0442 77.5093C70.1562 77.2853 70.2682 77.0613 70.3962 76.8373C70.4762 76.6934 70.5562 76.5654 70.6362 76.4214C70.7801 76.1654 70.9241 75.9255 71.0681 75.6695C71.1321 75.5575 71.1961 75.4615 71.2601 75.3495C71.4361 75.0776 71.596 74.8056 71.788 74.5496C71.836 74.4696 71.9 74.3896 71.948 74.3097C72.14 74.0217 72.3479 73.7497 72.5559 73.4618C72.6039 73.3978 72.6519 73.3338 72.6999 73.2858C72.9239 72.9978 73.1478 72.7099 73.3718 72.4379C73.4198 72.3899 73.4678 72.3419 73.4998 72.2779C73.7398 72.0059 73.9797 71.718 74.2197 71.462C74.2677 71.414 74.3157 71.366 74.3637 71.302C74.6037 71.0461 74.8596 70.7741 75.1156 70.5181C75.1796 70.4541 75.2276 70.4061 75.2916 70.3582C75.5475 70.1182 75.8035 69.8622 76.0755 69.6382C76.1395 69.5903 76.2035 69.5263 76.2515 69.4783C76.5234 69.2383 76.7954 68.9983 77.0833 68.7744C82.3467 64.5189 89.2258 62.2312 96.4889 62.9511C99.9285 63.287 103.192 62.2952 105.768 60.3754C106.504 59.8315 107.192 59.1916 107.799 58.5036C108.855 57.3038 109.703 55.912 110.279 54.3922C110.583 53.6083 110.807 52.7764 110.951 51.9285C110.999 51.6245 111.047 51.3046 111.079 51.0006C111.223 49.5128 111.111 48.057 110.791 46.6811C110.535 45.5773 110.151 44.5374 109.639 43.5615C107.624 39.69 103.768 36.8904 99.1126 36.4264C91.0816 35.6425 83.3066 36.6824 76.1555 39.1941C76.1395 39.1941 76.1235 39.1941 76.0915 39.2101C75.4675 39.434 74.8596 39.658 74.2357 39.898C74.1397 39.946 74.0277 39.978 73.9317 40.026C73.6758 40.122 73.4198 40.2339 73.1638 40.3459C72.8759 40.4579 72.6039 40.5859 72.316 40.7139C72.252 40.7459 72.188 40.7779 72.108 40.8099C65.6928 43.6735 60.0295 47.721 55.3421 52.6164C55.3261 52.6324 55.3101 52.6484 55.2941 52.6804C54.7821 53.2083 54.2862 53.7522 53.8063 54.2962C53.7583 54.3442 53.7103 54.4082 53.6783 54.4562C53.4703 54.6961 53.2623 54.9361 53.0544 55.1761C52.9104 55.352 52.7664 55.528 52.6224 55.704C52.5264 55.832 52.4145 55.944 52.3185 56.0719C52.0785 56.3599 51.8545 56.6639 51.6146 56.9518C51.6146 56.9518 51.6145 56.9678 51.5986 56.9838C47.999 61.6552 45.1354 66.9506 43.2316 72.7259C43.2316 72.7579 43.2156 72.7738 43.1996 72.8058C43.0876 73.1578 42.9756 73.4938 42.8637 73.8457C42.7997 74.0697 42.7357 74.2777 42.6717 74.5016C42.6237 74.6616 42.5757 74.8216 42.5277 74.9816C41.6638 78.0052 41.0719 81.1088 40.7679 84.2764C40.224 89.8757 40.5439 95.651 41.8718 101.426C43.0396 106.498 44.8794 111.217 47.2951 115.536C58.5577 135.71 82.1387 146.925 105.784 141.501C119.27 138.414 130.389 130.463 137.7 119.92C138.468 118.8 138.132 117.264 136.996 116.56C135.908 115.872 134.484 116.176 133.764 117.232C129.141 123.887 122.854 129.407 115.335 133.102H115.319Z" fill="#62E3BB"/>
</svg>
