<svg width="132" height="28" viewBox="0 0 132 28" fill="none" xmlns="http://www.w3.org/2000/svg">
<g clip-path="url(#clip0_13_138)">
<path d="M18.8655 24.8877C18.0382 25.2953 17.1511 25.611 16.216 25.8268C15.2808 26.0426 14.3417 26.1425 13.4226 26.1345C9.05465 26.1066 5.03041 23.7088 2.91639 19.9203C2.81249 19.7365 2.71258 19.5527 2.62067 19.3609C2.21305 18.5336 1.89735 17.6465 1.68155 16.7113C1.56566 16.2118 1.48573 15.7163 1.43777 15.2207C1.41779 15.0409 1.54967 14.8851 1.7295 14.8691C1.90134 14.8571 2.0532 14.985 2.06919 15.1568C2.1571 16.048 2.35292 16.9351 2.65264 17.7983C2.86844 18.4177 3.14018 19.0252 3.46788 19.6126C3.66369 19.9603 3.8755 20.3 4.11128 20.6317C4.8346 21.6547 5.69779 22.5219 6.6489 23.2332C9.57417 25.4112 13.3986 26.0706 16.8833 24.9956C18.0183 24.6479 19.1172 24.1204 20.1403 23.3971C21.0354 22.7657 21.8107 22.0264 22.4661 21.2151C23.5771 19.8364 24.3364 18.2419 24.72 16.5635C24.7959 16.2318 24.5721 15.9081 24.2365 15.8481C23.9208 15.7922 23.625 16 23.5531 16.3077C23.2454 17.6425 22.6739 18.9213 21.8507 20.0522C21.2033 20.9434 20.404 21.7466 19.4529 22.418C18.5018 23.0894 17.4788 23.5729 16.4198 23.8846C13.3586 24.7878 10.0297 24.2123 7.44815 22.3381C6.55699 21.6907 5.75374 20.8914 5.08237 19.9403C4.87057 19.6406 4.68274 19.3369 4.5069 19.0252C4.12726 18.3458 3.82754 17.6345 3.61574 16.9112C3.35598 16.032 3.22011 15.1288 3.20412 14.2257C3.20412 14.0458 3.34399 13.898 3.52382 13.902C3.69566 13.902 3.83154 14.0418 3.83553 14.2137C3.8715 15.7882 4.29111 17.3388 5.05839 18.7175C5.29816 19.1451 5.56991 19.5567 5.87363 19.9483C6.52901 20.7915 7.33626 21.5388 8.28737 22.1463C9.23848 22.7537 10.2535 23.1733 11.2926 23.4211C14.1379 24.0924 17.1551 23.4291 19.4609 21.6347C20.3041 20.9794 21.0514 20.1721 21.6589 19.221C22.2663 18.2699 22.6859 17.2548 22.9337 16.2158C23.2174 15.0049 23.2614 13.7621 23.0815 12.5552C23.0296 12.2155 22.7059 11.9878 22.3702 12.0597H22.3502C22.0465 12.1316 21.8547 12.4234 21.8986 12.7311C22.0665 13.83 22.0185 14.965 21.7388 16.0639C21.519 16.9311 21.1633 17.7823 20.6518 18.5776C20.1403 19.3729 19.5209 20.0522 18.8215 20.6117C16.7554 22.2741 14.01 22.8736 11.4404 22.2262C10.5732 22.0064 9.72203 21.6507 8.92677 21.1392C8.13151 20.6277 7.45215 20.0083 6.89267 19.3089C6.59295 18.9373 6.3292 18.5416 6.10141 18.13C5.55392 17.1469 5.21025 16.0639 5.08237 14.953C5.06239 14.7772 5.19426 14.6173 5.3701 14.6013C5.53794 14.5893 5.6858 14.7092 5.70179 14.8771C5.78571 15.6124 5.96954 16.3397 6.26126 17.035C6.37316 17.3028 6.50104 17.5625 6.6449 17.8223C6.8687 18.2219 7.12845 18.6096 7.43217 18.9772C7.92771 19.5807 8.49118 20.0882 9.1066 20.5038C11.2966 21.9864 14.1099 22.2621 16.5476 21.2391C17.231 20.9514 17.8864 20.5637 18.4898 20.0682C19.0933 19.5727 19.6008 19.0092 20.0164 18.3938C20.6318 17.4826 21.0394 16.4636 21.2353 15.4086C21.2992 15.0649 21.0554 14.7412 20.7078 14.7052C20.404 14.6732 20.1203 14.8811 20.0644 15.1848C19.7926 16.6874 19.0053 18.102 17.7345 19.1491C14.8892 21.4829 10.6931 21.0713 8.3593 18.2259C8.10354 17.9142 7.88375 17.5865 7.69193 17.2468C7.01256 16.036 6.74881 14.6732 6.87669 13.3465C6.88868 13.2386 6.90067 13.1267 6.91665 13.0188C6.92464 12.9708 6.93263 12.9229 6.94063 12.8709C6.95262 12.811 6.96061 12.755 6.9726 12.6951C6.98459 12.6352 7.00057 12.5752 7.01256 12.5153C7.02455 12.4713 7.03254 12.4234 7.04453 12.3794C7.06052 12.3155 7.0765 12.2515 7.09648 12.1876C7.10847 12.1476 7.12046 12.1037 7.13245 12.0637C7.15243 11.9997 7.17241 11.9398 7.19239 11.8759C7.20438 11.8359 7.22037 11.7919 7.23635 11.752C7.25633 11.692 7.28031 11.6361 7.30429 11.5761C7.32027 11.5322 7.34025 11.4842 7.35624 11.4403C7.37622 11.3883 7.4002 11.3364 7.42418 11.2844C7.44816 11.2325 7.46814 11.1845 7.49211 11.1326C7.51209 11.0886 7.53607 11.0446 7.55605 11.0007C7.58403 10.9447 7.612 10.8888 7.64397 10.8328C7.66395 10.7969 7.68393 10.7649 7.70392 10.7289C7.73988 10.665 7.77585 10.6051 7.81181 10.5411C7.8278 10.5131 7.84378 10.4892 7.85977 10.4612C7.90373 10.3933 7.94369 10.3253 7.99165 10.2614C8.00364 10.2414 8.01962 10.2214 8.03161 10.2014C8.07956 10.1295 8.13151 10.0616 8.18347 9.98963C8.19545 9.97365 8.20744 9.95766 8.21943 9.94567C8.27538 9.87374 8.33133 9.80181 8.38728 9.73387C8.39926 9.72188 8.41125 9.70989 8.41925 9.6939C8.47919 9.62597 8.53913 9.55404 8.59908 9.4901C8.61107 9.47811 8.62306 9.46612 8.63505 9.45013C8.69499 9.38619 8.75893 9.31826 8.82287 9.25432C8.83885 9.23833 8.85084 9.22634 8.86683 9.21435C8.93077 9.15441 8.99471 9.09047 9.06264 9.03452C9.07863 9.02254 9.09461 9.00655 9.1066 8.99456C9.17454 8.93462 9.24248 8.87467 9.31441 8.81873C10.6292 7.75572 12.3476 7.18425 14.1619 7.36408C15.0211 7.44801 15.8363 7.20024 16.4797 6.72069C16.6635 6.58481 16.8354 6.42496 16.9872 6.25312C17.251 5.9534 17.4628 5.60573 17.6067 5.22608C17.6826 5.03027 17.7385 4.82246 17.7745 4.61066C17.7865 4.53473 17.7985 4.45481 17.8065 4.37888C17.8424 4.00722 17.8145 3.64356 17.7345 3.29989C17.6706 3.02414 17.5747 2.76439 17.4468 2.52061C16.9433 1.55352 15.9802 0.854173 14.8173 0.738282C12.8111 0.542465 10.869 0.802222 9.08262 1.42963C9.07863 1.42963 9.07463 1.42963 9.06664 1.43363C8.91078 1.48958 8.75893 1.54553 8.60307 1.60547C8.5791 1.61746 8.55112 1.62545 8.52714 1.63744C8.4632 1.66142 8.39927 1.68939 8.33533 1.71737C8.26339 1.74534 8.19546 1.77731 8.12352 1.80928C8.10754 1.81727 8.09155 1.82526 8.07157 1.83326C6.46907 2.54859 5.05439 3.55964 3.88349 4.7825C3.87949 4.7865 3.87549 4.79049 3.8715 4.79848C3.74362 4.93036 3.61974 5.06623 3.49985 5.20211C3.48786 5.2141 3.47587 5.23008 3.46788 5.24207C3.41593 5.30201 3.36397 5.36196 3.31202 5.4219C3.27606 5.46586 3.24009 5.50982 3.20412 5.55378C3.18014 5.58575 3.15217 5.61372 3.1282 5.64569C3.06825 5.71762 3.0123 5.79355 2.95236 5.86549C2.95236 5.86549 2.95236 5.86948 2.94836 5.87348C2.0492 7.04039 1.33387 8.36315 0.858316 9.8058C0.858316 9.8138 0.85432 9.81779 0.850323 9.82578C0.82235 9.9137 0.794376 9.99762 0.766402 10.0855C0.750417 10.1415 0.734433 10.1934 0.718448 10.2494C0.706459 10.2893 0.69447 10.3293 0.682481 10.3693C0.466683 11.1246 0.31882 11.8998 0.242891 12.6911C0.107018 14.0898 0.186945 15.5324 0.518634 16.9751C0.810362 18.2419 1.26993 19.4208 1.87337 20.4998C4.68674 25.5391 10.5772 28.3405 16.4837 26.9857C19.8526 26.2145 22.63 24.2283 24.4562 21.5948C24.6481 21.315 24.5641 20.9314 24.2804 20.7556C24.0087 20.5837 23.653 20.6597 23.4732 20.9234C22.3182 22.5858 20.7477 23.9646 18.8695 24.8877H18.8655Z" fill="#00CE9B"/>
<path fill-rule="evenodd" clip-rule="evenodd" d="M130.16 20.6308H131.82V4.43082H130.12V12.4427C129.936 12.1167 129.716 11.8261 129.46 11.5708C129.074 11.1575 128.627 10.8442 128.12 10.6308C127.614 10.4175 127.074 10.3108 126.5 10.3108C125.58 10.3108 124.74 10.5508 123.98 11.0308C123.22 11.4975 122.614 12.1375 122.16 12.9508C121.72 13.7508 121.5 14.6442 121.5 15.6308C121.5 16.6575 121.707 17.5775 122.12 18.3908C122.534 19.1908 123.1 19.8175 123.82 20.2708C124.554 20.7241 125.38 20.9508 126.3 20.9508C127.247 20.9508 128.074 20.7175 128.78 20.2508C129.333 19.8824 129.779 19.4001 130.12 18.804L130.16 20.6308ZM128.56 18.9508C128.04 19.2708 127.434 19.4308 126.74 19.4308C126.06 19.4308 125.454 19.2708 124.92 18.9508C124.4 18.6308 123.987 18.1842 123.68 17.6108C123.387 17.0375 123.24 16.3775 123.24 15.6308C123.24 14.8842 123.387 14.2242 123.68 13.6508C123.987 13.0775 124.4 12.6308 124.92 12.3108C125.454 11.9908 126.06 11.8308 126.74 11.8308C127.434 11.8308 128.04 11.9908 128.56 12.3108C129.08 12.6308 129.487 13.0775 129.78 13.6508C130.087 14.2242 130.24 14.8842 130.24 15.6308C130.24 16.3775 130.087 17.0375 129.78 17.6108C129.487 18.1842 129.08 18.6308 128.56 18.9508Z" fill="#19233B"/>
<path d="M104.4 10.6308H102.7V20.6308H104.4V10.6308Z" fill="#19233B"/>
<path d="M102.38 6.75082C102.38 7.09748 102.487 7.38415 102.7 7.61082C102.927 7.83748 103.207 7.95082 103.54 7.95082C103.887 7.95082 104.167 7.83748 104.38 7.61082C104.594 7.38415 104.7 7.09748 104.7 6.75082C104.7 6.40415 104.594 6.11748 104.38 5.89082C104.167 5.66415 103.887 5.55082 103.54 5.55082C103.207 5.55082 102.927 5.66415 102.7 5.89082C102.487 6.11748 102.38 6.40415 102.38 6.75082Z" fill="#19233B"/>
<path d="M63.3872 20.9508C62.2539 20.9508 61.4206 20.6508 60.8872 20.0508C60.3539 19.4375 60.0872 18.4841 60.0872 17.1908V12.0908H57.8072V10.6308H60.0872V7.75082H61.7872V10.6308H65.2872V12.0908H61.7872V17.0508C61.7872 17.9042 61.9339 18.5242 62.2272 18.9108C62.5339 19.2842 63.0206 19.4708 63.6872 19.4708C64.0339 19.4708 64.3606 19.4308 64.6672 19.3508C64.9872 19.2575 65.3206 19.1242 65.6672 18.9508L65.8672 20.3708C65.5606 20.5575 65.1872 20.6975 64.7472 20.7908C64.3206 20.8975 63.8672 20.9508 63.3872 20.9508Z" fill="#19233B"/>
<path fill-rule="evenodd" clip-rule="evenodd" d="M43.0302 18.3308C42.5635 19.1308 41.9302 19.7708 41.1302 20.2508C40.3435 20.7175 39.4635 20.9508 38.4902 20.9508C37.4902 20.9508 36.5969 20.7175 35.8102 20.2508C35.0235 19.7842 34.3969 19.1508 33.9302 18.3508C33.4769 17.5508 33.2502 16.6442 33.2502 15.6308C33.2502 14.6308 33.4835 13.7308 33.9502 12.9308C34.4169 12.1308 35.0435 11.4975 35.8302 11.0308C36.6302 10.5508 37.5169 10.3108 38.4902 10.3108C39.4902 10.3108 40.3835 10.5442 41.1702 11.0108C41.9702 11.4775 42.5969 12.1108 43.0502 12.9108C43.5035 13.7108 43.7302 14.6175 43.7302 15.6308C43.7302 16.6175 43.4969 17.5175 43.0302 18.3308ZM35.4302 17.6108C35.7369 18.1842 36.1502 18.6308 36.6702 18.9508C37.2035 19.2708 37.8102 19.4308 38.4902 19.4308C39.1835 19.4308 39.7902 19.2708 40.3102 18.9508C40.8302 18.6308 41.2369 18.1842 41.5302 17.6108C41.8369 17.0375 41.9902 16.3775 41.9902 15.6308C41.9902 14.8842 41.8369 14.2242 41.5302 13.6508C41.2369 13.0775 40.8302 12.6308 40.3102 12.3108C39.7902 11.9908 39.1835 11.8308 38.4902 11.8308C37.8102 11.8308 37.2035 11.9908 36.6702 12.3108C36.1502 12.6308 35.7369 13.0775 35.4302 13.6508C35.1369 14.2242 34.9902 14.8842 34.9902 15.6308C34.9902 16.3775 35.1369 17.0375 35.4302 17.6108Z" fill="#19233B"/>
<path fill-rule="evenodd" clip-rule="evenodd" d="M76.3568 20.2508C77.1568 19.7708 77.7901 19.1308 78.2568 18.3308C78.7234 17.5175 78.9568 16.6175 78.9568 15.6308C78.9568 14.6175 78.7301 13.7108 78.2768 12.9108C77.8234 12.1108 77.1968 11.4775 76.3968 11.0108C75.6101 10.5442 74.7168 10.3108 73.7168 10.3108C72.7434 10.3108 71.8568 10.5508 71.0568 11.0308C70.2701 11.4975 69.6434 12.1308 69.1768 12.9308C68.7101 13.7308 68.4768 14.6308 68.4768 15.6308C68.4768 16.6442 68.7034 17.5508 69.1568 18.3508C69.6234 19.1508 70.2501 19.7842 71.0368 20.2508C71.8234 20.7175 72.7168 20.9508 73.7168 20.9508C74.6901 20.9508 75.5701 20.7175 76.3568 20.2508ZM71.8968 18.9508C71.3768 18.6308 70.9634 18.1842 70.6568 17.6108C70.3634 17.0375 70.2168 16.3775 70.2168 15.6308C70.2168 14.8842 70.3634 14.2242 70.6568 13.6508C70.9634 13.0775 71.3768 12.6308 71.8968 12.3108C72.4301 11.9908 73.0368 11.8308 73.7168 11.8308C74.4101 11.8308 75.0168 11.9908 75.5368 12.3108C76.0568 12.6308 76.4634 13.0775 76.7568 13.6508C77.0634 14.2242 77.2168 14.8842 77.2168 15.6308C77.2168 16.3775 77.0634 17.0375 76.7568 17.6108C76.4634 18.1842 76.0568 18.6308 75.5368 18.9508C75.0168 19.2708 74.4101 19.4308 73.7168 19.4308C73.0368 19.4308 72.4301 19.2708 71.8968 18.9508Z" fill="#19233B"/>
<path d="M82.8526 10.6308H84.4526L84.4781 12.3057C84.7012 11.78 85.0393 11.3483 85.4926 11.0108C86.1326 10.5442 86.8859 10.3108 87.7526 10.3108C88.6592 10.3108 89.4059 10.5575 89.9926 11.0508C90.4432 11.4113 90.7847 11.9071 91.0172 12.5383C91.2319 11.965 91.5904 11.4825 92.0926 11.0908C92.7726 10.5708 93.5592 10.3108 94.4526 10.3108C95.6392 10.3108 96.5526 10.6842 97.1926 11.4308C97.8326 12.1642 98.1526 13.2175 98.1526 14.5908V20.6308H96.4526V14.8908C96.4526 13.8508 96.2526 13.0775 95.8526 12.5708C95.4659 12.0642 94.8659 11.8108 94.0526 11.8108C93.4926 11.8108 93.0126 11.9442 92.6126 12.2108C92.2126 12.4775 91.8992 12.8575 91.6726 13.3508C91.4592 13.8308 91.3526 14.4175 91.3526 15.1108V20.6308H89.6526V14.8708C89.6526 13.8308 89.4592 13.0642 89.0726 12.5708C88.6859 12.0642 88.0926 11.8108 87.2926 11.8108C86.7192 11.8108 86.2259 11.9442 85.8126 12.2108C85.4126 12.4642 85.0992 12.8375 84.8726 13.3308C84.6592 13.8108 84.5526 14.3975 84.5526 15.0908V20.6308H82.8526V10.6308Z" fill="#19233B"/>
<path d="M108.993 10.6308H110.593L110.619 12.3499C110.852 11.8132 111.203 11.3735 111.673 11.0308C112.313 10.5508 113.073 10.3108 113.953 10.3108C115.14 10.3108 116.053 10.6842 116.693 11.4308C117.333 12.1642 117.653 13.2175 117.653 14.5908V20.6308H115.953V14.8908C115.953 13.8508 115.753 13.0775 115.353 12.5708C114.967 12.0642 114.367 11.8108 113.553 11.8108C112.967 11.8108 112.453 11.9442 112.013 12.2108C111.587 12.4775 111.26 12.8575 111.033 13.3508C110.807 13.8308 110.693 14.4175 110.693 15.1108V20.6308H108.993V10.6308Z" fill="#19233B"/>
<path d="M49.0252 11.0508C48.2118 11.4908 47.5785 12.1108 47.1252 12.9108C46.6718 13.7108 46.4452 14.6375 46.4452 15.6908C46.4452 16.7442 46.6652 17.6642 47.1052 18.4508C47.5585 19.2242 48.1918 19.8242 49.0052 20.2508C49.8185 20.6775 50.7785 20.8908 51.8852 20.8908C52.4452 20.8908 52.9985 20.8242 53.5452 20.6908C54.1052 20.5575 54.5985 20.3708 55.0252 20.1308L54.8252 18.7108C54.2918 18.9375 53.7918 19.1042 53.3252 19.2108C52.8718 19.3175 52.4252 19.3708 51.9852 19.3708C51.1985 19.3708 50.5185 19.2242 49.9452 18.9308C49.3852 18.6242 48.9518 18.1908 48.6452 17.6308C48.3385 17.0575 48.1852 16.3842 48.1852 15.6108C48.1852 14.8508 48.3385 14.1975 48.6452 13.6508C48.9518 13.0908 49.3785 12.6575 49.9252 12.3508C50.4852 12.0442 51.1318 11.8908 51.8652 11.8908C52.2918 11.8908 52.7585 11.9575 53.2652 12.0908C53.7718 12.2108 54.2118 12.3708 54.5852 12.5708L54.8252 11.1108C54.4118 10.8842 53.9452 10.7042 53.4252 10.5708C52.9052 10.4375 52.3852 10.3708 51.8652 10.3708C50.7852 10.3708 49.8385 10.5975 49.0252 11.0508Z" fill="#19233B"/>
</g>
<defs>
<clipPath id="clip0_13_138">
<rect width="131.64" height="26.6515" fill="white" transform="translate(0.17981 0.674255)"/>
</clipPath>
</defs>
</svg>
